<svg xmlns="http://www.w3.org/2000/svg" version="1.1" xmlns:xlink="http://www.w3.org/1999/xlink" xmlns:svgjs="http://svgjs.dev/svgjs" width="1000" height="623" viewBox="0 0 1000 623"><g transform="matrix(1,0,0,1,-0.6060606060606233,0.2522267206477409)"><svg viewBox="0 0 396 247" data-background-color="#ffffff" preserveAspectRatio="xMidYMid meet" height="623" width="1000" xmlns="http://www.w3.org/2000/svg" xmlns:xlink="http://www.w3.org/1999/xlink"><g id="tight-bounds" transform="matrix(1,0,0,1,0.2400000000000091,-0.09999999999999432)"><svg viewBox="0 0 395.52 247.2" height="247.2" width="395.52"><g><svg></svg></g><g><svg viewBox="0 0 395.52 247.2" height="247.2" width="395.52"><g><path xmlns="http://www.w3.org/2000/svg" d="M55.039 247.2l44.96-77.873v32.141h195.522l0-32.141 44.96 77.873zM197.76 0l26.403 45.732-52.806 0z" fill="#ed1703" fill-rule="nonzero" stroke="none" stroke-width="1" stroke-linecap="butt" stroke-linejoin="miter" stroke-miterlimit="10" stroke-dasharray="" stroke-dashoffset="0" font-family="none" font-weight="none" font-size="none" text-anchor="none" style="mix-blend-mode: normal" data-fill-palette-color="tertiary"></path></g><g transform="matrix(1,0,0,1,122.24729613733906,67.98)"><svg viewBox="0 0 151.02540772532186 111.23999999999998" height="111.23999999999998" width="151.02540772532186"><g><svg viewBox="0 0 151.02540772532186 111.23999999999998" height="111.23999999999998" width="151.02540772532186"><g><svg viewBox="0 0 151.02540772532186 111.23999999999998" height="111.23999999999998" width="151.02540772532186"><g><svg viewBox="0 0 151.02540772532186 111.23999999999998" height="111.23999999999998" width="151.02540772532186"><g id="textblocktransform"><svg viewBox="0 0 151.02540772532186 111.23999999999998" height="111.23999999999998" width="151.02540772532186" id="textblock"><g><svg viewBox="0 0 151.02540772532186 111.23999999999998" height="111.23999999999998" width="151.02540772532186"><g transform="matrix(1,0,0,1,0,0)"><svg width="151.02540772532186" viewBox="-5.099999904632568 -34.95000076293945 47.44999694824219 34.95000076293945" height="111.23999999999998" data-palette-color="#ed1703"><path d="M36.55-2.15L42.35-2.15 42.35 0 29.2 0 25.95-7.55 11.3-7.55 8.05 0-5.1 0-5.1-2.15 0.65-2.15 14.85-34.95 22.4-34.95 36.55-2.15ZM23-14.4L18.65-24.55 14.25-14.4 23-14.4Z" opacity="1" transform="matrix(1,0,0,1,0,0)" fill="#ed1703" class="undefined-text-0" data-fill-palette-color="primary" id="text-0"></path></svg></g></svg></g></svg></g></svg></g><g></g></svg></g></svg></g></svg></g></svg></g><defs></defs></svg><rect width="395.52" height="247.2" fill="none" stroke="none" visibility="hidden"></rect></g></svg></g></svg>